<svg width="1280" height="720" xmlns="http://www.w3.org/2000/svg" xmlns:xlink="http://www.w3.org/1999/xlink" overflow="hidden"><defs><clipPath id="clip0"><rect x="0" y="0" width="1280" height="720"/></clipPath></defs><g clip-path="url(#clip0)"><rect x="0" y="0" width="1280" height="720" fill="#FFFFFF"/><path d="M492.5 20.3337C492.5 9.37988 501.38 0.500053 512.334 0.500053L661.666 0.500053C672.62 0.500053 681.5 9.37988 681.5 20.3337L681.5 99.6664C681.5 110.62 672.62 119.5 661.666 119.5L512.334 119.5C501.38 119.5 492.5 110.62 492.5 99.6664Z" stroke="#2F528F" stroke-width="1.33333" stroke-miterlimit="8" fill="#4472C4" fill-rule="evenodd"/><text fill="#FFFFFF" font-family="DengXian,DengXian_MSFontService,sans-serif" font-weight="400" font-size="24" transform="translate(544.334 53)">Sighting <tspan font-size="24" x="7.5" y="29">Report</tspan></text><path d="M265.5 160.334C265.5 150.484 273.484 142.5 283.334 142.5L436.666 142.5C446.516 142.5 454.5 150.484 454.5 160.334L454.5 231.666C454.5 241.516 446.516 249.5 436.666 249.5L283.334 249.5C273.484 249.5 265.5 241.516 265.5 231.666Z" stroke="#2F528F" stroke-width="1.33333" stroke-miterlimit="8" fill="#4472C4" fill-rule="evenodd"/><text fill="#FFFFFF" font-family="DengXian,DengXian_MSFontService,sans-serif" font-weight="400" font-size="24" transform="translate(299.669 189)">Note &amp; Lab<tspan font-size="24" x="8.58002" y="29">Comment</tspan></text><path d="M492.5 160.334C492.5 150.484 500.484 142.5 510.334 142.5L663.666 142.5C673.516 142.5 681.5 150.484 681.5 160.334L681.5 231.666C681.5 241.516 673.516 249.5 663.666 249.5L510.334 249.5C500.484 249.5 492.5 241.516 492.5 231.666Z" stroke="#2F528F" stroke-width="1.33333" stroke-miterlimit="8" fill="#4472C4" fill-rule="evenodd"/><text fill="#FFFFFF" font-family="DengXian,DengXian_MSFontService,sans-serif" font-weight="400" font-size="24" transform="translate(549.977 189)">Date &amp; <tspan font-size="24" x="-21" y="29">Coordinate</tspan></text><path d="M724.5 160.334C724.5 150.484 732.484 142.5 742.334 142.5L927.666 142.5C937.516 142.5 945.5 150.484 945.5 160.334L945.5 231.666C945.5 241.516 937.516 249.5 927.666 249.5L742.334 249.5C732.484 249.5 724.5 241.516 724.5 231.666Z" stroke="#2F528F" stroke-width="1.33333" stroke-miterlimit="8" fill="#4472C4" fill-rule="evenodd"/><text fill="#FFFFFF" font-family="DengXian,DengXian_MSFontService,sans-serif" font-weight="400" font-size="24" transform="translate(802.729 203)">Image</text><path d="M263.5 292.334C263.5 282.484 271.484 274.5 281.334 274.5L434.666 274.5C444.516 274.5 452.5 282.484 452.5 292.334L452.5 363.666C452.5 373.516 444.516 381.5 434.666 381.5L281.334 381.5C271.484 381.5 263.5 373.516 263.5 363.666Z" stroke="#2F528F" stroke-width="1.33333" stroke-miterlimit="8" fill="#4472C4" fill-rule="evenodd"/><text fill="#FFFFFF" font-family="DengXian,DengXian_MSFontService,sans-serif" font-weight="400" font-size="24" transform="translate(334.851 335)">Tfidf</text><path d="M263.5 435.167C263.5 425.41 271.41 417.5 281.167 417.5L434.833 417.5C444.59 417.5 452.5 425.41 452.5 435.167L452.5 505.833C452.5 515.59 444.59 523.5 434.833 523.5L281.167 523.5C271.41 523.5 263.5 515.59 263.5 505.833Z" stroke="#2F528F" stroke-width="1.33333" stroke-miterlimit="8" fill="#4472C4" fill-rule="evenodd"/><text fill="#FFFFFF" font-family="DengXian,DengXian_MSFontService,sans-serif" font-weight="400" font-size="24" transform="translate(324.268 477)">Bayers</text><path d="M494.5 433.334C494.5 423.484 502.484 415.5 512.334 415.5L665.666 415.5C675.516 415.5 683.5 423.484 683.5 433.334L683.5 504.666C683.5 514.516 675.516 522.5 665.666 522.5L512.334 522.5C502.484 522.5 494.5 514.516 494.5 504.666Z" stroke="#2F528F" stroke-width="1.33333" stroke-miterlimit="8" fill="#4472C4" fill-rule="evenodd"/><text fill="#FFFFFF" font-family="DengXian,DengXian_MSFontService,sans-serif" font-weight="400" font-size="24" transform="translate(566.223 476)">SGD</text><path d="M724.5 434.5C724.5 425.111 732.111 417.5 741.5 417.5L809.5 417.5C818.889 417.5 826.5 425.111 826.5 434.5L826.5 506.5C826.5 515.889 818.889 523.5 809.5 523.5L741.5 523.5C732.111 523.5 724.5 515.889 724.5 506.5Z" stroke="#2F528F" stroke-width="1.33333" stroke-miterlimit="8" fill="#4472C4" fill-rule="evenodd"/><text fill="#FFFFFF" font-family="DengXian,DengXian_MSFontService,sans-serif" font-weight="400" font-size="24" transform="translate(751.089 477)">SVM</text><path d="M844.5 434.334C844.5 425.037 852.037 417.5 861.334 417.5L928.666 417.5C937.963 417.5 945.5 425.037 945.5 434.334L945.5 506.666C945.5 515.963 937.963 523.5 928.666 523.5L861.334 523.5C852.037 523.5 844.5 515.963 844.5 506.666Z" stroke="#2F528F" stroke-width="1.33333" stroke-miterlimit="8" fill="#4472C4" fill-rule="evenodd"/><text fill="#FFFFFF" font-family="DengXian,DengXian_MSFontService,sans-serif" font-weight="400" font-size="24" transform="translate(872.202 477)">MLP</text><path d="M495.5 290.501C495.5 280.007 504.007 271.5 514.5 271.5L665.5 271.5C675.993 271.5 684.5 280.007 684.5 290.501L684.5 366.5C684.5 376.993 675.993 385.5 665.5 385.5L514.5 385.5C504.007 385.5 495.5 376.993 495.5 366.5Z" stroke="#2F528F" stroke-width="1.33333" stroke-miterlimit="8" fill="#4472C4" fill-rule="evenodd"/><text fill="#FFFFFF" font-family="DengXian,DengXian_MSFontService,sans-serif" font-weight="400" font-size="24" transform="translate(512.214 335)">StandardScaler</text><path d="M724.5 297.5C724.5 288.111 732.111 280.5 741.5 280.5L809.5 280.5C818.889 280.5 826.5 288.111 826.5 297.5L826.5 370.5C826.5 379.889 818.889 387.5 809.5 387.5L741.5 387.5C732.111 387.5 724.5 379.889 724.5 370.5Z" stroke="#2F528F" stroke-width="1.33333" stroke-miterlimit="8" fill="#4472C4" fill-rule="evenodd"/><text fill="#FFFFFF" font-family="DengXian,DengXian_MSFontService,sans-serif" font-weight="400" font-size="24" transform="translate(753.339 341)">PCA</text><path d="M0.333322-0.00271124 0.469754 16.7703-0.196891 16.7757-0.333322 0.00271124ZM4.12545 15.4072 0.190656 23.4395-3.87428 15.4723Z" fill="#4472C4" transform="matrix(-1 0 0 1 586.691 119.5)"/><path d="M681.658 59.2066 829.528 138.824 829.212 139.411 681.342 59.7935ZM830.092 134.964 835.24 142.278 826.3 142.007Z" fill="#4472C4"/><path d="M0.176284-0.282905 127.362 78.9696 127.01 79.5354-0.176284 0.282905ZM128.17 75.1524 132.844 82.7781 123.939 81.9421Z" fill="#4472C4" transform="matrix(-1 0 0 1 492.344 59.5001)"/><path d="M0.332651-0.0213144 1.55718 19.0897 0.891874 19.1323-0.332651 0.0213144ZM5.13108 17.5246 1.65081 25.764-2.85255 18.0361Z" fill="#4472C4" transform="matrix(-1 0 0 1 360.151 249.5)"/><path d="M586.831 249.459 588.75 264.974 588.088 265.056 586.169 249.541ZM592.225 263.201 589.238 271.631 584.286 264.183Z" fill="#4472C4"/><path d="M0.155328-0.294931 54.1467 28.14 53.836 28.7299-0.155328 0.294931ZM54.6756 24.2745 59.89 31.5415 50.9477 31.3528Z" fill="#4472C4" transform="matrix(-1 0 0 1 835.39 249.5)"/><path d="M835.814 249.388 893.464 410.989 892.836 411.213 835.186 249.612ZM896.469 408.501 895.39 417.38 888.934 411.189Z" fill="#4472C4"/><path d="M775.833 387.5 775.833 410.603 775.167 410.603 775.167 387.5ZM779.5 409.27 775.5 417.27 771.5 409.27Z" fill="#4472C4"/><path d="M0.33329-0.00534417 0.717956 23.9844 0.0513746 23.9951-0.33329 0.00534417ZM4.36277 22.5924 0.491549 30.6555-3.6362 22.7207Z" fill="#4472C4" transform="matrix(-1 0 0 1 589.992 385.5)"/><path d="M358.833 381.5 358.833 410.38 358.167 410.38 358.167 381.5ZM362.5 409.047 358.5 417.047 354.5 409.047Z" fill="#4472C4"/><path d="M327.5 567.334C327.5 560.798 332.798 555.5 339.334 555.5L837.667 555.5C844.202 555.5 849.5 560.798 849.5 567.334L849.5 614.667C849.5 621.202 844.202 626.5 837.667 626.5L339.334 626.5C332.798 626.5 327.5 621.202 327.5 614.667Z" stroke="#2F528F" stroke-width="1.33333" stroke-miterlimit="8" fill="#4472C4" fill-rule="evenodd"/><text fill="#FFFFFF" font-family="DengXian,DengXian_MSFontService,sans-serif" font-weight="400" font-size="24" transform="translate(489.587 598)">Logistic Regression</text><path d="M358.545 523.17 582.258 553.807 582.168 554.467 358.455 523.83ZM581.436 549.993 588.819 555.042 580.351 557.919Z" fill="#4472C4"/><path d="M0.333253-0.00730574 0.906193 26.1275 0.239687 26.1421-0.333253 0.00730574ZM4.54276 24.7141 0.719055 32.7999-3.45532 24.8895Z" fill="#4472C4" transform="matrix(-1 0 0 1 589.219 522.5)"/><path d="M0.0554402-0.328691 180.484 30.1041 180.373 30.7615-0.0554402 0.328691ZM179.778 26.2667 187.002 31.5415 178.448 34.1552Z" fill="#4472C4" transform="matrix(-1 0 0 1 775.502 523.5)"/><path d="M0.0340917-0.331585 300.184 30.5281 300.116 31.1913-0.0340917 0.331585ZM299.232 26.7443 306.781 31.5415 298.414 34.7023Z" fill="#4472C4" transform="matrix(-1 0 0 1 895.281 523.5)"/><path d="M411.5 683C411.5 672.231 490.522 663.5 588 663.5 685.478 663.5 764.5 672.231 764.5 683 764.5 693.77 685.478 702.5 588 702.5 490.522 702.5 411.5 693.77 411.5 683Z" stroke="#2F528F" stroke-width="1.33333" stroke-miterlimit="8" fill="#4472C4" fill-rule="evenodd"/><text fill="#FFFFFF" font-family="DengXian,DengXian_MSFontService,sans-serif" font-weight="400" font-size="24" transform="translate(532.715 690)">Probability</text><path d="M0.333308-0.0041221 0.706299 30.1554 0.0396831 30.1637-0.333308 0.0041221ZM4.3562 28.7769 0.455433 36.8257-3.64319 28.8758Z" fill="#4472C4" transform="matrix(-1 0 0 1 588.956 626.5)"/></g></svg>